<svg width="16" height="10" viewBox="0 0 16 10" fill="none" xmlns="http://www.w3.org/2000/svg">
<path d="M9.13612 9.13603C9.21705 9.05568 9.28535 8.96671 9.34475 8.8743L15.5459 2.67284C16.1506 2.06759 16.1509 1.08667 15.5456 0.481131C14.9407 -0.124121 13.9595 -0.124121 13.3539 0.481131L8.01343 5.82221L2.6448 0.454154C2.04012 -0.151385 1.05863 -0.151385 0.453089 0.454153C0.150894 0.756923 -0.000346488 1.15325 -0.000346506 1.54958C-0.000346523 1.9459 0.150895 2.34309 0.453664 2.645L6.6821 8.8743C6.74151 8.96671 6.80953 9.05539 6.89074 9.13603C7.20069 9.44597 7.60763 9.59463 8.01343 9.58775C8.41951 9.59492 8.82703 9.44597 9.13612 9.13603Z" fill="#101010"/>
</svg>
