<svg width="6" height="10" viewBox="0 0 6 10" fill="none" xmlns="http://www.w3.org/2000/svg">
<path d="M5.71002 4.28962C5.6598 4.23904 5.60419 4.19635 5.54644 4.15922L1.67052 0.283488C1.29224 -0.0944361 0.679168 -0.0946154 0.300707 0.283667C-0.0775757 0.66177 -0.0775757 1.27502 0.300707 1.65348L3.63888 4.9913L0.283846 8.3467C-0.0946154 8.72462 -0.0946154 9.33805 0.283846 9.71651C0.473077 9.90539 0.720781 9.99991 0.968485 9.99991C1.21619 9.99991 1.46443 9.90539 1.65312 9.71616L5.54644 5.82338C5.60419 5.78625 5.65962 5.74374 5.71002 5.69298C5.90373 5.49927 5.99665 5.24493 5.99234 4.9913C5.99683 4.7375 5.90373 4.4828 5.71002 4.28962Z" fill="white"/>
</svg>
