<svg width="24" height="24" viewBox="0 0 24 24" fill="none" xmlns="http://www.w3.org/2000/svg">
<g clip-path="url(#clip0_0_1878)">
<path d="M23.006 16.2112C22.2914 15.3542 21.4505 14.6227 20.6549 13.846C19.9371 13.1458 19.8918 12.7397 20.4688 11.9316C21.0986 11.0497 21.7758 10.2016 22.4113 9.32359C23.0045 8.50308 23.6109 7.68481 23.923 6.70238C24.121 6.07736 23.9459 5.80129 23.3049 5.69185C23.1945 5.6727 23.0804 5.67171 22.9679 5.67171L19.1653 5.66723C18.697 5.66027 18.4381 5.86446 18.2724 6.27957C18.0489 6.84067 17.8183 7.40127 17.5519 7.94272C16.9475 9.17038 16.2725 10.357 15.3262 11.3618C15.1175 11.5834 14.8867 11.8635 14.538 11.7481C14.1017 11.5889 13.9732 10.8701 13.9804 10.6271L13.9766 6.23803C13.8921 5.61102 13.753 5.33147 13.1305 5.20959L9.18042 5.21034C8.65315 5.21034 8.38876 5.41404 8.10722 5.74383C7.94481 5.93435 7.89581 6.05796 8.22958 6.12113C8.8852 6.24549 9.25454 6.6698 9.35253 7.32715C9.50972 8.37748 9.49878 9.43203 9.40824 10.4866C9.38163 10.7945 9.32866 11.1017 9.20654 11.3892C9.01552 11.8411 8.70712 11.9331 8.30196 11.655C7.93511 11.4033 7.67744 11.0482 7.42524 10.6915C6.47789 9.35294 5.72204 7.90939 5.10572 6.39248C4.92764 5.95425 4.62048 5.68862 4.15613 5.68141C3.01528 5.66325 1.87417 5.66027 0.733316 5.6824C0.0468625 5.69533 -0.15783 6.02861 0.121726 6.6509C1.36431 9.41487 2.74741 12.102 4.55283 14.5498C5.47979 15.8061 6.54404 16.9151 7.91894 17.7011C9.47714 18.5919 11.1545 18.8601 12.9211 18.7775C13.7483 18.7387 13.9968 18.5236 14.0351 17.6991C14.061 17.135 14.1249 16.5741 14.4032 16.0672C14.6763 15.5698 15.0899 15.4751 15.5667 15.7845C15.8052 15.9394 16.0062 16.1366 16.1959 16.3446C16.6615 16.8539 17.1104 17.3787 17.5937 17.8709C18.1998 18.4877 18.9179 18.8521 19.8207 18.7777L23.3156 18.7785C23.8787 18.7417 24.1707 18.0512 23.8474 17.4227C23.6203 16.9825 23.3224 16.5905 23.006 16.2112Z" fill="#9FB4B5"/>
</g>
<defs>
<clipPath id="clip0_0_1878">
<rect width="24" height="24" fill="white"/>
</clipPath>
</defs>
</svg>
